<?xml version="1.0" encoding="UTF-8" standalone="no"?>
<svg
   width="500"
   height="200"
   fill="none"
   viewBox="0 0 500 200"
   version="1.1"
   id="svg8"
   sodipodi:docname="CLion_logo.svg"
   inkscape:version="1.1.1 (3bf5ae0d25, 2021-09-20)"
   xmlns:inkscape="http://www.inkscape.org/namespaces/inkscape"
   xmlns:sodipodi="http://sodipodi.sourceforge.net/DTD/sodipodi-0.dtd"
   xmlns="http://www.w3.org/2000/svg"
   xmlns:svg="http://www.w3.org/2000/svg">
  <defs
     id="defs12" />
  <sodipodi:namedview
     id="namedview10"
     pagecolor="#ffffff"
     bordercolor="#666666"
     borderopacity="1.0"
     inkscape:pageshadow="2"
     inkscape:pageopacity="0.0"
     inkscape:pagecheckerboard="0"
     showgrid="false"
     inkscape:zoom="1.8951841"
     inkscape:cx="134.28774"
     inkscape:cy="-31.395366"
     inkscape:window-width="3840"
     inkscape:window-height="2096"
     inkscape:window-x="0"
     inkscape:window-y="27"
     inkscape:window-maximized="1"
     inkscape:current-layer="svg8" />
  <path
     fill="#000000"
     d="m 22.5,23.815105 h 90.2323 V 114.04741 H 22.5 Z"
     id="path2"
     style="stroke-width:1.50387" />
  <path
     fill="#ffffff"
     d="m 33.74896,96.993502 h 33.837115 v 5.639518 H 33.74896 Z M 67.706384,35.003911 h 7.519358 V 62.645073 H 90.02384 v 6.286184 H 67.706384 Z M 31.342766,52.193164 v -0.10527 a 17.33964,17.33964 0 0 1 17.790802,-17.640415 17.640415,17.640415 0 0 1 13.459653,5.26355 l -4.752236,5.50417 a 12.632522,12.632522 0 0 0 -8.722455,-3.84991 c -5.75983,0 -9.895477,4.782311 -9.895477,10.632373 v 0.09023 c 0,5.85006 4.045415,10.722605 9.895477,10.722605 3.895027,0 6.286183,-1.503872 9.023229,-4.000299 l 4.692081,4.857505 A 17.444912,17.444912 0 0 1 48.817755,69.683193 17.219331,17.219331 0 0 1 31.342766,52.193164"
     id="path4"
     style="stroke-width:1.50387" />
  <path
     fill="#000"
     d="m 143.56167,69.126759 v -0.255657 c 0,-25.656051 19.32476,-46.620024 47.04111,-46.620024 17.02384,0 27.20504,5.669597 35.58161,13.925852 l -12.63253,14.557479 c -6.96292,-6.316261 -14.04616,-10.181212 -23.06939,-10.181212 -15.21918,0 -26.16737,12.632523 -26.16737,28.107362 v 0.255659 c 0,15.47484 10.69253,28.363019 26.16737,28.363019 10.30153,0 16.54259,-4.135646 23.71606,-10.5271 l 12.63252,12.752824 c -9.27889,9.925569 -19.55034,16.121509 -36.99524,16.121509 -26.63357,-0.0902 -46.27414,-20.587998 -46.27414,-46.499711 z M 233.58343,23.75495 h 19.85111 v 72.185841 h 45.02591 V 113.98725 H 233.58343 Z M 306.31067,19.89 h 20.61808 v 17.399796 h -20.61808 z m 0.51131,25.009387 h 19.55034 v 69.087863 h -19.55034 z m 27.7314,34.919902 v -0.25566 c 0,-19.851105 15.97112,-35.957572 37.50656,-35.957572 21.53545,0 37.28099,15.850808 37.28099,35.701915 v 0.255657 c 0,19.851108 -15.98617,35.972611 -37.50657,35.972611 -21.5204,0 -37.28098,-15.77561 -37.28098,-35.716951 z m 55.41767,0 v -0.25566 c 0,-10.18121 -7.33889,-19.069093 -18.16677,-19.069093 -11.21888,0 -17.92615,8.632223 -17.92615,18.813436 v 0.255657 c 0,10.196251 7.35394,19.084129 18.18181,19.084129 11.24896,0 17.94119,-8.63222 17.94119,-18.828469 z m 26.79901,-34.919902 h 19.55032 v 9.745088 c 4.51162,-5.804944 10.31656,-11.083535 20.24211,-11.083535 14.82818,0 23.46041,9.790206 23.46041,25.656052 V 113.98725 H 460.47256 V 75.443022 c 0,-9.278889 -4.39131,-14.046163 -11.86555,-14.046163 -7.47424,0 -12.24151,4.767274 -12.24151,14.046163 V 113.98725 H 416.81516 Z M 150.38925,177.46569 v 4.60184 H 146.795 v -34.03262 h 3.59425 v 14.78305 a 10.835395,10.835395 0 0 1 9.23377,-5.36881 c 5.77487,0 11.50462,4.51162 11.50462,12.49717 v 0.0902 c 0,7.88028 -5.68464,12.55732 -11.50462,12.55732 a 10.89555,10.89555 0 0 1 -9.23377,-5.12819 z m 17.06894,-7.36898 v -0.10528 c 0,-5.68463 -3.9251,-9.324 -8.49687,-9.324 a 9.0232301,9.0232301 0 0 0 -8.72245,9.27889 v 0.0902 a 9.0382689,9.0382689 0 0 0 2.42273,6.48018 9.0382689,9.0382689 0 0 0 6.29972,2.85885 c 4.662,0 8.49687,-3.4589 8.49687,-9.27888 z m 26.55838,-12.13625 h 3.81984 l -10.10603,24.90412 c -2.0603,4.99285 -4.3913,6.81254 -8.03066,6.81254 a 10.937659,10.937659 0 0 1 -5.12822,-1.21813 l 1.21814,-2.84233 a 7.5193586,7.5193586 0 0 0 3.77472,0.88728 c 2.15054,0 3.50402,-1.11286 4.94774,-4.51161 l -10.96322,-24.06194 h 3.97021 l 8.75254,20.10675 z m 20.93389,18.79841 2.64682,-2.2859 c 2.01519,3.00775 4.06046,4.662 7.51935,4.662 3.6845,0 6.37642,-2.66185 6.37642,-7.83517 v -21.91141 h 3.7296 v 21.82118 a 11.797873,11.797873 0 0 1 -3.00773,8.58712 10.047367,10.047367 0 0 1 -7.17348,2.69191 11.173767,11.173767 0 0 1 -10.09098,-5.72973 z m 26.88923,-6.66216 v -0.10528 c 0,-6.94787 4.88758,-12.54228 11.56477,-12.54228 7.12836,0 11.23392,5.69967 11.23392,12.73779 0.024,0.38499 0.024,0.77299 0,1.15798 h -19.15932 a 8.4051391,8.4051391 0 0 0 8.48183,8.16602 9.978188,9.978188 0 0 0 7.59456,-3.39874 l 2.31595,2.00015 a 12.415965,12.415965 0 0 1 -9.92554,4.51161 12.030973,12.030973 0 0 1 -12.10617,-12.52725 z m 19.15933,-1.3986 c -0.37598,-4.39131 -2.88744,-8.21114 -7.68479,-8.21114 -4.1958,0 -7.36897,3.48898 -7.83517,8.21114 z m 10.30151,6.993 v -14.55747 h -3.35363 v -3.17318 h 3.35363 v -7.2637 h 3.59427 v 7.2637 h 7.63966 v 3.17318 h -7.63966 v 14.09127 c 0,2.93254 1.62417,4.0003 4.06045,4.0003 a 7.525374,7.525374 0 0 0 3.48898,-0.82713 v 3.00774 a 9.0202223,9.0202223 0 0 1 -4.33115,1.02263 c -3.87999,0.0452 -6.81255,-1.84976 -6.81255,-6.73734 z m 17.12911,-26.30272 h 13.89577 a 12.027966,12.027966 0 0 1 8.54199,2.88744 7.2366307,7.2366307 0 0 1 2.09038,5.21843 v 0.10527 a 7.8487065,7.8487065 0 0 1 -5.17332,7.51936 c 3.86495,1.17303 6.993,3.39875 6.993,7.88029 v 0.0902 c 0,5.5944 -4.7071,8.90292 -11.83546,8.90292 h -14.51236 z m 20.79854,8.63223 c 0,-3.21829 -2.55658,-5.3237 -7.21858,-5.3237 h -9.9406 v 11.23391 h 9.65487 c 4.42138,0 7.51935,-2.00015 7.51935,-5.81998 z m -6.85765,9.17362 H 292.069 v 11.51965 h 10.90307 c 4.9327,0 8.01565,-2.18062 8.01565,-5.81998 v -0.10528 c 0.0601,-3.48897 -2.91751,-5.54928 -8.61719,-5.54928 z m 19.21948,-9.23378 h 3.59424 v 6.30123 a 10.304529,10.304529 0 0 1 3.84993,-4.92369 10.303025,10.303025 0 0 1 5.9854,-1.79863 v 3.87999 h -0.28574 c -5.26354,0 -9.54959,3.77473 -9.54959,11.05346 v 9.59471 h -3.59424 z m 16.30196,17.11407 v -0.12031 c 0,-5.0831 4.19581,-7.79007 10.30153,-7.79007 2.50996,-0.0256 5.00789,0.32485 7.41409,1.03768 v -0.76698 c 0,-4.34619 -2.66185,-6.57191 -7.18851,-6.57191 -2.53853,0.024 -5.03797,0.62711 -7.30882,1.75952 l -1.08278,-3.00773 a 19.873665,19.873665 0 0 1 8.76757,-2.00015 10.618838,10.618838 0 0 1 7.79006,2.64681 9.519508,9.519508 0 0 1 2.46634,7.05316 v 14.7229 h -3.44386 v -3.62433 a 10.627861,10.627861 0 0 1 -8.72246,4.15068 c -4.48154,0.0301 -8.99316,-2.54154 -8.99316,-7.48927 z m 17.71562,-1.86481 v -2.331 a 25.268053,25.268053 0 0 0 -7.08324,-1.02263 c -4.51161,0 -7.05316,1.95503 -7.05316,4.99286 v 0.10527 c 0,3.00773 2.81225,4.79734 6.01549,4.79734 4.52665,-0.015 8.12091,-2.70697 8.12091,-6.54184 z m 10.69252,-24.46799 h 4.10558 v 3.95519 h -4.10558 z m 0.24063,9.21873 h 3.57921 v 24.06195 h -3.57921 z m 11.33918,0 h 3.59427 v 4.21084 a 9.1360206,9.1360206 0 0 1 8.25624,-4.72215 c 5.83503,0 9.23377,3.9251 9.23377,9.65485 v 15.03872 h -3.59425 v -14.07625 c 0,-4.51161 -2.42124,-7.27873 -6.66215,-7.27873 a 7.0817319,7.0817319 0 0 0 -5.26355,2.17611 7.1012823,7.1012823 0 0 0 -1.97006,5.34325 v 13.7905 h -3.59427 z m 26.28769,21.03917 1.80465,-2.57162 a 14.049169,14.049169 0 0 0 8.34648,3.00774 c 2.90247,0 4.99286,-1.50387 4.99286,-3.81984 v -0.10527 c 0,-2.42123 -2.84232,-3.35363 -6.01549,-4.24091 -3.77472,-1.06775 -7.97052,-2.37612 -7.97052,-6.7975 v -0.0452 c 0,-4.15069 3.45889,-6.90278 8.21114,-6.90278 3.07842,0.0632 6.07864,0.98505 8.6623,2.66186 l -1.62419,2.73705 a 13.64914,13.64914 0 0 0 -7.12835,-2.331 c -2.85736,0 -4.66201,1.50386 -4.66201,3.50401 v 0.0902 c 0,2.2859 3.00776,3.17318 6.19596,4.15069 3.72961,1.11287 7.74495,2.55659 7.74495,6.90277 v 0.0902 c 0,4.51161 -3.78977,7.21857 -8.58711,7.21857 a 16.542589,16.542589 0 0 1 -9.97067,-3.54912 z"
     id="path6"
     style="fill:#ffffff;stroke-width:1.50387" />
</svg>
