<?xml version="1.0" encoding="UTF-8" standalone="no"?>
<!-- Generator: Adobe Illustrator 22.1.0, SVG Export Plug-In . SVG Version: 6.00 Build 0) -->

<svg
   x="0px"
   y="0px"
   viewBox="0 0 710 200"
   xml:space="preserve"
   version="1.1"
   id="svg39"
   sodipodi:docname="cmake-logo.svg"
   width="710"
   height="200"
   inkscape:version="1.1.1 (3bf5ae0d25, 2021-09-20)"
   xmlns:inkscape="http://www.inkscape.org/namespaces/inkscape"
   xmlns:sodipodi="http://sodipodi.sourceforge.net/DTD/sodipodi-0.dtd"
   xmlns="http://www.w3.org/2000/svg"
   xmlns:svg="http://www.w3.org/2000/svg"
   xmlns:rdf="http://www.w3.org/1999/02/22-rdf-syntax-ns#"
   xmlns:cc="http://creativecommons.org/ns#"
   xmlns:dc="http://purl.org/dc/elements/1.1/"><metadata
   id="metadata45"><rdf:RDF><cc:Work
       rdf:about=""><dc:format>image/svg+xml</dc:format><dc:type
         rdf:resource="http://purl.org/dc/dcmitype/StillImage" /></cc:Work></rdf:RDF></metadata><defs
   id="defs43" /><sodipodi:namedview
   pagecolor="#ffffff"
   bordercolor="#666666"
   borderopacity="1"
   objecttolerance="10"
   gridtolerance="10"
   guidetolerance="10"
   inkscape:pageopacity="0"
   inkscape:pageshadow="2"
   inkscape:window-width="2753"
   inkscape:window-height="1106"
   id="namedview41"
   showgrid="false"
   inkscape:zoom="0.85794274"
   inkscape:cx="151.52526"
   inkscape:cy="-145.11458"
   inkscape:window-x="26"
   inkscape:window-y="23"
   inkscape:window-maximized="0"
   inkscape:current-layer="Layer_1"
   inkscape:pagecheckerboard="0"
   units="px"
   width="551px" /> <style
   type="text/css"
   id="style2"> .st0{fill:#064F8C;} .st1{fill:#249847;} .st2{fill:#BE2128;} .st3{fill:#172C36;} .st4{fill:#CDCDCE;} </style> <g
   id="Layer_2"
   transform="translate(0,14.599998)"> </g> <g
   id="g870"
   transform="matrix(0.79452357,0,0,0.79452357,3.8001251,1.0396175)"><g
     transform="translate(0,14.599998)"
     id="Layer_1"> <g
   id="Layer_2_2_"> </g> <polygon
   style="fill:#064f8c"
   id="polygon6"
   points="3.6,38.8 22.9,22.4 21.3,3.8 "
   class="st0"
   transform="matrix(6.3902056,0,0,6.3902056,-14.02915,-31.571361)" /> <polygon
   style="fill:#249847"
   id="polygon8"
   points="14.8,30.3 3.5,39.9 38.6,39.9 "
   class="st1"
   transform="matrix(6.3902056,0,0,6.3902056,-14.02915,-31.571361)" /> <polygon
   style="fill:#be2128"
   id="polygon10"
   points="22.1,4.4 24.7,33.5 39.8,39.6 "
   class="st2"
   transform="matrix(6.3902056,0,0,6.3902056,-14.02915,-31.571361)" /> <g
   id="g32"
   transform="matrix(6.3902056,0,0,6.3902056,-14.02915,-31.571361)"> <g
   id="g14"
   style="fill:#ffffff"> <path
   style="fill:#ffffff"
   inkscape:connector-curvature="0"
   id="path12"
   d="m 48.8,24.5 c -0.5,2.2 -0.2,4 0.8,5.4 1,1.4 2.6,2.1 4.7,2.1 0.9,0 1.8,-0.1 2.7,-0.3 0.9,-0.2 1.6,-0.4 2.1,-0.6 l -0.5,3.4 c -0.8,0.2 -1.6,0.4 -2.4,0.5 -0.8,0.1 -1.7,0.2 -2.7,0.2 -3.6,0 -6.2,-0.9 -7.8,-2.8 -1.6,-1.8 -2,-4.4 -1.3,-7.8 0.7,-3.4 2.3,-6.1 4.7,-8.1 2.4,-2 5.4,-3 8.9,-3 1.1,0 2,0.1 2.8,0.3 0.8,0.2 1.5,0.4 2,0.6 L 61.7,18 c -0.5,-0.4 -1.2,-0.6 -1.9,-0.8 -0.7,-0.2 -1.5,-0.3 -2.3,-0.3 -2.1,0 -4,0.7 -5.6,2.1 -1.6,1.4 -2.6,3.2 -3.1,5.5 z"
   class="st3" /> </g> <g
   id="g18"
   style="fill:#ffffff"> <path
   style="fill:#ffffff"
   inkscape:connector-curvature="0"
   id="path16"
   d="m 82.7,13.9 h 6.7 L 85,34.8 h -4 l 3.7,-17.3 -9.4,17.3 h -4 l -2,-17.4 -3.7,17.4 h -4 L 66,13.9 h 6.7 l 1.6,15.9 z"
   class="st3" /> </g> <g
   id="g22"
   style="fill:#ffffff"> <path
   style="fill:#ffffff"
   inkscape:connector-curvature="0"
   id="path20"
   d="m 99.2,32.3 c -0.9,1.1 -1.8,1.9 -2.7,2.3 -1,0.4 -1.8,0.6 -2.7,0.6 -1.6,0 -2.8,-0.4 -3.6,-1.3 -0.8,-0.9 -1,-2 -0.8,-3.2 0.4,-1.7 1.3,-3.1 2.7,-4 1.5,-0.9 3.4,-1.3 5.9,-1.3 h 2.5 l 0.1,-0.3 c 0.2,-1.1 0.1,-1.9 -0.4,-2.3 -0.5,-0.4 -1.3,-0.7 -2.4,-0.7 -0.8,0 -1.7,0.2 -2.6,0.5 -0.9,0.3 -1.7,0.7 -2.4,1.3 l 0.6,-3.5 c 0.6,-0.3 1.5,-0.5 2.7,-0.8 1.2,-0.2 2.2,-0.4 3,-0.4 2.3,0 3.9,0.5 4.7,1.6 0.8,1.1 1,2.8 0.5,5.1 l -0.9,4.1 c -0.3,1.4 -0.5,2.5 -0.6,3.5 -0.1,1 -0.2,1.5 -0.2,1.5 H 99 c 0,0 0,-0.2 0,-0.7 -0.1,-0.7 0,-1.3 0.2,-2 z M 99.9,28 100,27.7 h -1.8 c -1.5,0 -2.6,0.3 -3.4,0.7 -0.8,0.4 -1.3,1 -1.4,1.9 -0.1,0.6 0,1.1 0.3,1.5 0.3,0.3 0.9,0.5 1.8,0.5 1.2,0 2.2,-0.4 3,-1.3 0.6,-0.8 1.1,-1.8 1.4,-3 z"
   class="st3" /> </g> <g
   id="g26"
   style="fill:#ffffff"> <path
   style="fill:#ffffff"
   inkscape:connector-curvature="0"
   id="path24"
   d="m 110.9,12.4 h 4 l -2.8,13.3 6.2,-6.3 h 4.8 l -7.2,6.9 4.7,8.5 h -5.1 l -3.6,-7.6 -1.6,7.6 h -4 z"
   class="st3" /> </g> <g
   id="g30"
   style="fill:#ffffff"> <path
   style="fill:#ffffff"
   inkscape:connector-curvature="0"
   id="path28"
   d="m 135.3,34 c -0.8,0.4 -1.6,0.7 -2.5,0.9 -0.9,0.2 -1.8,0.3 -2.9,0.3 -2.7,0 -4.6,-0.7 -5.7,-2.1 -1.1,-1.4 -1.4,-3.4 -0.9,-6 0.5,-2.4 1.6,-4.4 3.2,-5.8 1.6,-1.5 3.5,-2.2 5.7,-2.2 2.6,0 4.3,0.8 5.1,2.4 0.8,1.6 0.9,3.9 0.2,6.9 h -10.7 c 0,1.1 0.1,1.9 0.5,2.5 0.6,0.9 1.6,1.4 3.1,1.4 1.1,0 2.2,-0.2 3.2,-0.6 1.1,-0.4 1.8,-0.7 2.2,-1 z m -7.9,-8.4 h 6.9 c 0.2,-1.2 0.1,-2.1 -0.4,-2.7 -0.4,-0.6 -1.2,-0.9 -2.2,-0.9 -1.2,0 -2.2,0.4 -3,1.3 -0.4,0.6 -0.9,1.4 -1.3,2.3 z"
   class="st3" /> </g> </g> <g
   id="g36"
   transform="matrix(6.3902056,0,0,6.3902056,-14.02915,-31.571361)"> <polygon
   style="fill:#cdcdce"
   id="polygon34"
   points="15.4,29.8 23.9,33.2 23,23.3 "
   class="st4" /> </g> </g></g> </svg>
