<?xml version="1.0" encoding="UTF-8" standalone="no"?>
<svg
   height="200"
   width="200"
   version="1.1"
   id="svg6"
   sodipodi:docname="rust-logo-wht.svg"
   inkscape:version="1.1.1 (3bf5ae0d25, 2021-09-20)"
   xmlns:inkscape="http://www.inkscape.org/namespaces/inkscape"
   xmlns:sodipodi="http://sodipodi.sourceforge.net/DTD/sodipodi-0.dtd"
   xmlns="http://www.w3.org/2000/svg"
   xmlns:svg="http://www.w3.org/2000/svg">
  <defs
     id="defs10" />
  <sodipodi:namedview
     id="namedview8"
     pagecolor="#ffffff"
     bordercolor="#666666"
     borderopacity="1.0"
     inkscape:pageshadow="2"
     inkscape:pageopacity="0.0"
     inkscape:pagecheckerboard="0"
     showgrid="false"
     inkscape:zoom="2.1434174"
     inkscape:cx="-75.580238"
     inkscape:cy="73.247515"
     inkscape:window-width="2597"
     inkscape:window-height="1637"
     inkscape:window-x="214"
     inkscape:window-y="405"
     inkscape:window-maximized="0"
     inkscape:current-layer="svg6" />
  <path
     d="m 99.128828,9.760468 c -49.031864,0 -88.938463,39.925415 -88.938463,88.938468 0,49.013054 39.925415,88.938464 88.938463,88.938464 49.013062,0 88.938472,-39.92541 88.938472,-88.938464 0,-49.013053 -39.92541,-88.938468 -88.938472,-88.938468 z m -0.131699,7.902298 a 5.8326475,5.8514626 0 0 1 5.682131,5.851462 5.8514665,5.8514665 0 0 1 -11.702933,0 5.8514626,5.8514626 0 0 1 6.020802,-5.851462 z m 13.396281,9.633275 a 72.004975,72.004975 0 0 1 49.29527,35.108776 l -6.90509,15.578812 c -1.18534,2.690542 0.0376,5.851462 2.70935,7.055622 l 13.28339,5.889097 a 72.004975,72.004975 0 0 1 0.15052,12.493152 h -7.39429 c -0.73379,0 -1.03483,0.48918 -1.03483,1.20416 v 3.3867 c 0,7.97756 -4.49678,9.72734 -8.44794,10.1601 -3.76299,0.43274 -7.92111,-1.58046 -8.44793,-3.8759 -2.22016,-12.47434 -5.90791,-15.127253 -11.74054,-19.736921 7.24376,-4.590858 14.76976,-11.383069 14.76976,-20.451896 0,-9.802612 -6.71695,-15.973929 -11.28899,-19.003143 -6.43473,-4.233373 -13.54681,-5.080048 -15.46593,-5.080048 H 45.487291 A 72.004975,72.004975 0 0 1 85.770189,27.296041 l 9.012382,9.445126 c 2.032015,2.126095 5.399899,2.22017 7.525999,0.169336 z m -83.162273,43.31211 a 5.8514626,5.8514626 0 0 1 5.682128,5.851469 5.8514627,5.8514627 0 0 1 -11.702925,0 5.8514626,5.8514626 0 0 1 6.020797,-5.851469 z m 139.513173,0.263411 a 5.8514626,5.8514626 0 0 1 5.68213,5.851462 5.851465,5.851465 0 0 1 -11.70293,0 5.8514626,5.8514626 0 0 1 6.0208,-5.851462 z M 40.256723,71.812311 H 50.454449 V 117.79615 H 29.870848 a 72.004975,72.004975 0 0 1 -2.33306,-27.488703 l 12.606045,-5.606861 c 2.690544,-1.204167 3.913519,-4.346264 2.709359,-7.036813 z m 42.559513,0.489188 h 24.290154 c 1.26061,0 8.86186,1.448755 8.86186,7.149701 0,4.72257 -5.83265,6.415912 -10.63047,6.415912 H 82.797419 Z m 0,33.039131 h 18.608024 c 1.69336,0 9.08765,0.48919 11.43953,9.93432 0.73377,2.89751 2.37068,12.34263 3.48076,15.37185 1.11009,3.38669 5.60687,10.16008 10.40469,10.16008 h 30.3674 a 72.004975,72.004975 0 0 1 -6.66051,7.71416 l -12.36145,-2.65292 c -2.87869,-0.62089 -5.71975,1.22298 -6.34065,4.10167 l -2.93514,13.69731 a 72.004975,72.004975 0 0 1 -60.038639,-0.28222 l -2.935138,-13.69731 c -0.620895,-2.8787 -3.443144,-4.72257 -6.321837,-4.10167 l -12.09804,2.59646 a 72.004975,72.004975 0 0 1 -6.246578,-7.37548 h 58.834472 c 0.65853,0 1.11009,-0.11288 1.11009,-0.73377 v -20.80939 c 0,-0.60208 -0.45156,-0.73378 -1.11009,-0.73378 H 82.797419 Z m -27.150034,47.65838 a 5.8514626,5.8514626 0 0 1 5.682127,5.85146 5.8514626,5.8514626 0 0 1 -11.702925,0 5.8514626,5.8514626 0 0 1 6.020798,-5.85146 z m 86.643048,0.2634 a 5.8514626,5.8514626 0 0 1 5.68212,5.85146 5.851463,5.851463 0 0 1 -11.70292,0 5.8514626,5.8514626 0 0 1 6.0208,-5.85146 z"
     id="path2"
     style="fill:#ffffff;stroke-width:1.8815" />
  <path
     d="M 183.10014,98.698936 A 83.971311,83.971311 0 0 1 99.128828,182.67024 83.971311,83.971311 0 0 1 15.157523,98.698936 83.971311,83.971311 0 0 1 99.128828,14.727626 83.971311,83.971311 0 0 1 183.10014,98.698936 Z m -1.58045,-8.109261 13.09523,8.109261 -13.09523,8.109254 11.25136,10.51758 -14.41228,5.39992 8.99356,12.51196 -15.22133,2.48358 6.3971,14.03599 -15.40947,-0.54565 3.53721,15.01437 -15.01437,-3.53721 0.54565,15.40947 -14.03599,-6.3971 -2.48358,15.22133 -12.51197,-8.99356 -5.3999,14.41228 -10.51758,-11.25136 -8.109272,13.09523 -8.10926,-13.09523 -10.517575,11.25136 -5.399901,-14.41228 -12.511973,8.99356 -2.483579,-15.22133 -14.035985,6.3971 0.545636,-15.40947 -15.014364,3.53721 3.537219,-15.01437 -15.409479,0.54565 6.397097,-14.03599 -15.221329,-2.48358 8.993566,-12.51196 L 5.4866175,117.32577 16.737983,106.80819 3.6427481,98.698936 16.737983,90.589675 5.4866175,80.072094 19.898901,74.672193 10.905335,62.160222 26.126664,59.676643 19.729567,45.640658 35.139046,46.186294 31.601827,31.17193 46.616191,34.709149 46.070555,19.29967 60.10654,25.696767 62.590119,10.475438 75.102092,19.469004 80.501993,5.0567205 91.019568,16.308086 99.128828,3.2128511 107.2381,16.308086 117.75568,5.0567205 l 5.3999,14.4122835 12.51197,-8.993566 2.48358,15.221329 14.03599,-6.397097 -0.54565,15.409479 15.01437,-3.537219 -3.53721,15.014364 15.40947,-0.545636 -6.3971,14.035985 15.22133,2.483579 -8.99356,12.511971 14.41228,5.399901 z"
     fill-rule="evenodd"
     stroke="#000"
     stroke-linecap="round"
     stroke-linejoin="round"
     stroke-width="5.6445"
     id="path4"
     style="fill:#ffffff;stroke:#ffffff;stroke-opacity:1" />
</svg>
